<svg width="26" height="26" viewBox="0 0 26 26" fill="none" xmlns="http://www.w3.org/2000/svg">
<path fill-rule="evenodd" clip-rule="evenodd" d="M13 0C16.4478 0 19.7544 1.36964 22.1924 3.80761C24.6304 6.24558 26 9.55219 26 13C26 16.4478 24.6304 19.7544 22.1924 22.1924C19.7544 24.6304 16.4478 26 13 26C9.55219 26 6.24558 24.6304 3.80761 22.1924C1.36964 19.7544 0 16.4478 0 13C0 9.55219 1.36964 6.24558 3.80761 3.80761C6.24558 1.36964 9.55219 0 13 0ZM22.788 8C21.5053 5.50602 19.3226 3.59283 16.682 2.648C17.57 4.328 18.212 6.128 18.588 8H22.788ZM23.952 13.99C23.984 13.661 24 13.3306 24 13C23.998 11.9851 23.8546 10.9754 23.574 10H18.89C18.954 10.662 19 11.328 19 12C18.9959 13.3437 18.8578 14.6837 18.588 16H23.574C23.764 15.342 23.89 14.67 23.954 13.99H23.952ZM16.882 13.99L16.894 13.888C16.9622 13.2609 16.9976 12.6308 17 12C16.9866 11.331 16.9358 10.6633 16.848 10H9.152C9.06344 10.6632 9.01269 11.331 9 12C9.00489 13.3466 9.1612 14.6884 9.466 16H16.534C16.688 15.336 16.804 14.666 16.882 13.99ZM16.498 8C16.0268 5.8847 15.1764 3.87223 13.988 2.06C13.66 2.032 13.332 2 13 2C12.7917 2.00102 12.5835 2.01103 12.376 2.03L12.012 2.06L12 2.08C10.8179 3.88692 9.97161 5.89242 9.502 8H16.498ZM7.412 8C7.79563 6.12929 8.44629 4.32348 9.344 2.638C6.69197 3.5796 4.49892 5.49726 3.212 8H7.412ZM2.426 10C2.14578 10.9755 2.00241 11.9851 2 13C2.00241 14.0149 2.14578 15.0245 2.426 16H7.412C7.14085 14.6839 7.00282 13.3438 7 12C7 11.328 7.046 10.662 7.11 10H2.426ZM7.934 18H3.214C3.97003 19.4768 5.04944 20.764 6.37188 21.7657C7.69431 22.7675 9.2257 23.4581 10.852 23.786C9.57197 22.0284 8.58643 20.0742 7.934 18ZM13 23.288C14.2789 21.7063 15.2786 19.9179 15.956 18H10.044C10.7215 19.9179 11.7211 21.7062 13 23.288ZM18.066 18C17.4135 20.0741 16.428 22.0283 15.148 23.786C16.7742 23.4578 18.3055 22.7671 19.6279 21.7654C20.9503 20.7636 22.0297 19.4766 22.786 18H18.066Z" fill="#0754C7" fill-opacity="0.75"/>
<path d="M26 13C26 20.1797 20.1797 26 13 26C5.8203 26 0 20.1797 0 13C0 5.8203 5.8203 0 13 0C20.1797 0 26 5.8203 26 13ZM2.0331 13C2.0331 19.0568 6.94315 23.9669 13 23.9669C19.0568 23.9669 23.9669 19.0568 23.9669 13C23.9669 6.94315 19.0568 2.0331 13 2.0331C6.94315 2.0331 2.0331 6.94315 2.0331 13Z" fill="black" fill-opacity="0.75"/>
</svg>
