<svg width="27" height="20" viewBox="0 0 27 20" fill="none" xmlns="http://www.w3.org/2000/svg">
<path fill-rule="evenodd" clip-rule="evenodd" d="M5.87361 0.424612C6.14549 0.696573 6.29822 1.06538 6.29822 1.44994C6.29822 1.83449 6.14549 2.2033 5.87361 2.47526C4.93082 3.41795 4.18296 4.53711 3.67272 5.76884C3.16249 7.00057 2.89987 8.32074 2.89987 9.65397C2.89987 10.9872 3.16249 12.3074 3.67272 13.5391C4.18296 14.7708 4.93082 15.89 5.87361 16.8327C6.01212 16.9665 6.1226 17.1265 6.19861 17.3034C6.27461 17.4804 6.31462 17.6707 6.31629 17.8632C6.31797 18.0558 6.28127 18.2468 6.20835 18.425C6.13543 18.6032 6.02775 18.7651 5.89158 18.9013C5.75541 19.0375 5.59349 19.1452 5.41526 19.2181C5.23703 19.291 5.04606 19.3277 4.8535 19.326C4.66094 19.3243 4.47064 19.2843 4.2937 19.2083C4.11677 19.1323 3.95674 19.0218 3.82296 18.8833C2.61093 17.6713 1.6495 16.2325 0.993555 14.6489C0.337611 13.0653 0 11.368 0 9.65397C0 7.93992 0.337611 6.24265 0.993555 4.65907C1.6495 3.0755 2.61093 1.63662 3.82296 0.424612C4.09492 0.152733 4.46373 0 4.84828 0C5.23284 0 5.60165 0.152733 5.87361 0.424612ZM20.231 0.424612C20.503 0.152733 20.8718 0 21.2564 0C21.6409 0 22.0097 0.152733 22.2817 0.424612C23.4937 1.63662 24.4551 3.0755 25.1111 4.65907C25.767 6.24265 26.1046 7.93992 26.1046 9.65397C26.1046 11.368 25.767 13.0653 25.1111 14.6489C24.4551 16.2325 23.4937 17.6713 22.2817 18.8833C22.1479 19.0218 21.9879 19.1323 21.8109 19.2083C21.634 19.2843 21.4437 19.3243 21.2511 19.326C21.0586 19.3277 20.8676 19.291 20.6894 19.2181C20.5111 19.1452 20.3492 19.0375 20.2131 18.9013C20.0769 18.7651 19.9692 18.6032 19.8963 18.425C19.8234 18.2468 19.7867 18.0558 19.7883 17.8632C19.79 17.6707 19.83 17.4804 19.906 17.3034C19.982 17.1265 20.0925 16.9665 20.231 16.8327C21.1738 15.89 21.9217 14.7708 22.4319 13.5391C22.9422 12.3074 23.2048 10.9872 23.2048 9.65397C23.2048 8.32074 22.9422 7.00057 22.4319 5.76884C21.9217 4.53711 21.1738 3.41795 20.231 2.47526C19.9592 2.2033 19.8064 1.83449 19.8064 1.44994C19.8064 1.06538 19.9592 0.696573 20.231 0.424612ZM9.97635 4.52591C10.2482 4.79787 10.401 5.16668 10.401 5.55123C10.401 5.93578 10.2482 6.30459 9.97635 6.57655C9.57227 6.98056 9.25173 7.46022 9.03304 7.98812C8.81435 8.51603 8.70179 9.08184 8.70179 9.65325C8.70179 10.2247 8.81435 10.7905 9.03304 11.3184C9.25173 11.8463 9.57227 12.3259 9.97635 12.7299C10.111 12.8647 10.2178 13.0246 10.2906 13.2006C10.3635 13.3767 10.4009 13.5653 10.4008 13.7558C10.4008 13.9463 10.3632 14.1349 10.2902 14.3108C10.2173 14.4868 10.1104 14.6467 9.97563 14.7813C9.84088 14.916 9.68094 15.0228 9.50492 15.0956C9.32891 15.1684 9.14028 15.2059 8.94979 15.2058C8.7593 15.2057 8.57069 15.1682 8.39473 15.0952C8.21877 15.0222 8.0589 14.9153 7.92425 14.7806C6.56486 13.4208 5.80119 11.5767 5.80119 9.65397C5.80119 7.73121 6.56486 5.88716 7.92425 4.52736C8.05894 4.39252 8.21889 4.28555 8.39494 4.21257C8.571 4.13958 8.75972 4.10202 8.9503 4.10202C9.14089 4.10202 9.3296 4.13958 9.50566 4.21257C9.68172 4.28555 9.84166 4.39252 9.97635 4.52736V4.52591ZM16.1283 4.52591C16.263 4.39107 16.4229 4.2841 16.599 4.21112C16.775 4.13813 16.9638 4.10057 17.1543 4.10057C17.3449 4.10057 17.5336 4.13813 17.7097 4.21112C17.8858 4.2841 18.0457 4.39107 18.1804 4.52591C18.8539 5.19927 19.3882 5.99872 19.7527 6.87861C20.1173 7.75849 20.3049 8.70157 20.3049 9.65397C20.3049 10.6064 20.1173 11.5495 19.7527 12.4293C19.3882 13.3092 18.8539 14.1087 18.1804 14.782C17.9083 15.0542 17.5392 15.207 17.1543 15.207C16.7695 15.207 16.4004 15.0542 16.1283 14.782C15.8562 14.5099 15.7033 14.1408 15.7033 13.756C15.7033 13.3711 15.8562 13.0021 16.1283 12.7299C16.9439 11.9141 17.4021 10.8076 17.4021 9.65397C17.4021 8.50031 16.9439 7.39389 16.1283 6.578C15.9935 6.44331 15.8865 6.28337 15.8135 6.10731C15.7405 5.93125 15.703 5.74254 15.703 5.55195C15.703 5.36137 15.7405 5.17265 15.8135 4.9966C15.8865 4.82054 15.9935 4.66059 16.1283 4.52591ZM13.0523 8.20373C13.4369 8.20373 13.8058 8.35652 14.0778 8.62849C14.3498 8.90047 14.5026 9.26934 14.5026 9.65397V9.66848C14.5026 10.0531 14.3498 10.422 14.0778 10.694C13.8058 10.9659 13.4369 11.1187 13.0523 11.1187C12.6677 11.1187 12.2988 10.9659 12.0268 10.694C11.7549 10.422 11.6021 10.0531 11.6021 9.66848V9.65397C11.6021 9.26934 11.7549 8.90047 12.0268 8.62849C12.2988 8.35652 12.6677 8.20373 13.0523 8.20373Z" fill="#EE33EE"/>
</svg>
